<?xml version="1.0" encoding="UTF-8"?>
<!DOCTYPE svg PUBLIC "-//W3C//DTD SVG 1.1//EN" "http://www.w3.org/Graphics/SVG/1.1/DTD/svg11.dtd">
<!-- Creator: CorelDRAW Home & Student 2018 -->
<svg xmlns="http://www.w3.org/2000/svg" xml:space="preserve" width="31.625mm" height="16.9952mm" version="1.1" style="shape-rendering:geometricPrecision; text-rendering:geometricPrecision; image-rendering:optimizeQuality; fill-rule:evenodd; clip-rule:evenodd"
viewBox="0 0 5863.86 3151.23"
 xmlns:xlink="http://www.w3.org/1999/xlink">
 <defs>
  <style type="text/css">
   <![CDATA[
    .fil1 {fill:white}
    .fil0 {fill:white;fill-rule:nonzero}
   ]]>
  </style>
 </defs>
 <g id="Layer_x0020_1">
  <metadata id="CorelCorpID_0Corel-Layer"/>
  <g id="_716071304">
   <path class="fil0" d="M1175.57 1887.17c-19.78,0 -33.67,-5.04 -41.68,-15.13 -8.01,-10.09 -12.02,-29.56 -12.02,-58.39l0 -118.22c-56.52,72.09 -127.18,128.07 -211.97,167.95 -84.79,39.9 -176.63,59.83 -275.55,59.83 -178.06,0 -327.13,-64.64 -447.25,-193.91 -120.13,-129.27 -180.19,-290.01 -180.19,-482.24 0,-198.95 64.08,-364.51 192.19,-496.66 128.12,-132.15 287.81,-198.23 479.05,-198.23 97.05,0 184.18,17.54 261.44,52.62 77.25,35.08 143.66,86.74 199.25,154.97l0 -552.16 -74.91 0c-81.96,0 -134.95,-7.45 -158.98,-22.36 -24.01,-14.89 -36.03,-42.03 -36.03,-81.44 0,-34.6 9.66,-60.54 28.96,-77.84 19.32,-17.3 47.36,-25.98 84.09,-25.98l289.7 0c28.26,0 48.75,4.82 61.47,14.43 12.72,9.62 19.08,24.49 19.08,44.69l0 1624.79 63.58 0c46.17,0 79.62,7.94 100.33,23.79 20.73,15.85 31.09,41.09 31.09,75.69 0,32.67 -8.96,58.15 -26.85,76.41 -17.89,18.26 -41.92,27.39 -72.07,27.39l-272.73 0zm-925.59 -647.31c0,132.63 41.92,241.25 125.77,325.82 83.85,84.59 190.3,126.88 319.37,126.88 130,0 236.93,-43.98 320.77,-131.93 83.85,-87.94 125.77,-199.68 125.77,-335.18 0,-133.61 -41.68,-243.66 -125.06,-330.16 -83.36,-86.5 -190.54,-129.76 -321.48,-129.76 -132.83,0 -240.23,43.74 -322.18,131.2 -81.97,87.46 -122.95,201.83 -122.95,343.12zm2934.32 -596.84c34.08,-136.99 91.28,-256.8 171.6,-359.43 139.55,-178.35 319.31,-267.52 539.29,-267.52 219.02,0 398.82,89.95 539.27,269.82 140.47,179.89 210.73,409.35 210.73,688.37 0,280.04 -70.26,509.73 -210.73,689.11 -140.45,179.37 -320.26,269.06 -539.27,269.06 -217.2,0 -396.28,-89.95 -537.23,-269.82 -80.88,-103.26 -138.58,-222.84 -173.05,-358.75 -34.3,136.49 -91.86,256.32 -172.68,359.51 -140.51,179.37 -320.26,269.06 -539.29,269.06 -217.2,0 -396.28,-89.95 -537.21,-269.82 -140.96,-179.87 -211.41,-409.33 -211.41,-688.35 0,-282.1 69.77,-512.31 209.34,-690.67 139.55,-178.35 319.31,-267.52 539.29,-267.52 219.04,0 398.78,89.95 539.29,269.82 80.29,102.85 137.65,221.89 172.07,357.13zm-711.36 1071.7c155.25,0 277.48,-65.66 366.67,-196.99 89.19,-131.33 133.8,-312.5 133.8,-543.48 0,-230.99 -44.61,-412.15 -133.8,-543.48 -89.19,-131.33 -211.41,-197.01 -366.67,-197.01 -156.2,0 -278.42,65.16 -366.7,195.47 -88.26,130.31 -132.39,311.99 -132.39,545.02 0,230.98 44.59,412.15 133.78,543.48 89.19,131.33 210.95,196.99 365.31,196.99zm1422.25 0c155.25,0 277.5,-65.66 366.68,-196.99 89.2,-131.33 133.78,-312.5 133.78,-543.48 0,-230.99 -44.57,-412.15 -133.78,-543.48 -89.19,-131.33 -211.43,-197.01 -366.68,-197.01 -156.22,0 -278.42,65.16 -366.7,195.47 -88.28,130.31 -132.39,311.99 -132.39,545.02 0,230.98 44.61,412.15 133.76,543.48 89.19,131.33 210.99,196.99 365.33,196.99zm1161.09 -508.12l720.11 477.64c28.81,19.78 49.45,39.35 61.91,58.65 12.42,19.32 18.63,41.22 18.63,65.71 0,28.26 -5.71,50.88 -17.17,67.83 -11.48,16.97 -27.33,25.44 -47.65,25.44 -9.18,0 -19.32,-2.35 -30.45,-7.06 -11.14,-4.71 -26.85,-14.13 -47.15,-28.26l-781.06 -524.27c-2.61,-0.95 -5.88,-2.84 -9.81,-5.66 -60.28,-39.57 -90.39,-82.92 -90.39,-130.02 0,-47.1 29.46,-89.5 88.43,-127.18 5.23,-3.78 9.16,-6.6 11.77,-8.49l781.06 -515.8c17.65,-12.24 32.73,-20.95 45.19,-26.14 12.44,-5.17 23.23,-7.77 32.41,-7.77 20.32,0 36.18,8.01 47.65,24.03 11.46,16.02 17.17,37.68 17.17,65.01 0,25.44 -6.21,47.8 -18.63,67.12 -12.46,19.3 -33.1,38.38 -61.91,57.24l-720.11 471.98z"/>
   <rect class="fil1" x="0" y="2174.74" width="5863.87" height="185.42" rx="110.41" ry="92.71"/>
   <path class="fil0" d="M1326.54 2575.09l152.28 0 0 364.33c0,39.51 -2.61,70 -7.71,91.19 -5.12,21.19 -13.48,39.9 -25.25,56.26 -15.58,21.19 -34.67,37.29 -57.42,48.13 -22.77,10.87 -48.28,16.22 -76.54,16.22 -35.32,0 -66.71,-7.58 -94.19,-22.62 -27.61,-15.06 -51.29,-37.29 -70.9,-66.86l93.41 -84.77c2.35,16.61 7.71,29.44 16.08,38.34 8.51,9.01 19.12,13.46 31.93,13.46 14.52,0 24.59,-8.1 30.09,-24.2 5.49,-16.09 8.23,-56.39 8.23,-120.74l0 -308.74z"/>
   <path id="1" class="fil0" d="M1877.44 2942.45c0,-30.22 -7.97,-54.03 -24.07,-71.7 -16.09,-17.65 -38.07,-26.42 -65.93,-26.42 -27.87,0 -49.71,8.77 -65.68,26.29 -15.95,17.41 -23.94,41.48 -23.94,71.83 0,30.09 7.99,53.9 24.07,71.29 16.09,17.39 37.96,26.03 65.55,26.03 27.87,0 49.84,-8.64 65.93,-26.03 16.09,-17.39 24.07,-41.2 24.07,-71.29zm120.23 -193.09l0 386.97 -125.58 0 0 -62.8c-17.91,26.83 -37.94,46.45 -60.3,59 -22.38,12.44 -48.67,18.71 -78.77,18.71 -51.68,0 -92.88,-18.84 -123.88,-56.52 -30.87,-37.68 -46.32,-88.3 -46.32,-151.62 0,-63.19 16.22,-113.29 48.54,-150.58 32.3,-37.16 75.74,-55.72 130.42,-55.72 29.17,0 54.29,6.27 75.35,18.69 21.06,12.44 39.1,31.54 54.16,57.44l0 -63.58 126.36 0z"/>
   <path id="2" class="fil0" d="M2217.46 3136.32l-174.13 -386.97 145.74 0 65.93 170.84c0.78,1.84 1.56,3.93 2.61,6.55 8.51,22.51 13.74,40.42 15.7,54.03 1.82,-12.55 6.79,-29.3 15.04,-50.23 1.71,-4.58 3,-7.99 3.8,-10.35l65.93 -170.84 142.07 0 -175.83 386.97 -106.88 0z"/>
   <path id="3" class="fil0" d="M2838.33 2942.45c0,-30.22 -7.97,-54.03 -24.07,-71.7 -16.09,-17.65 -38.07,-26.42 -65.93,-26.42 -27.87,0 -49.71,8.77 -65.68,26.29 -15.95,17.41 -23.94,41.48 -23.94,71.83 0,30.09 7.99,53.9 24.07,71.29 16.09,17.39 37.96,26.03 65.55,26.03 27.87,0 49.84,-8.64 65.93,-26.03 16.09,-17.39 24.07,-41.2 24.07,-71.29zm120.23 -193.09l0 386.97 -125.58 0 0 -62.8c-17.91,26.83 -37.94,46.45 -60.3,59 -22.38,12.44 -48.67,18.71 -78.77,18.71 -51.68,0 -92.88,-18.84 -123.88,-56.52 -30.87,-37.68 -46.32,-88.3 -46.32,-151.62 0,-63.19 16.22,-113.29 48.54,-150.58 32.3,-37.16 75.74,-55.72 130.42,-55.72 29.17,0 54.29,6.27 75.35,18.69 21.06,12.44 39.1,31.54 54.16,57.44l0 -63.58 126.36 0z"/>
   <path id="4" class="fil0" d="M3316.62 3136.32l0 -561.23 116.96 0c87.13,0 148.74,4.06 184.84,12.29 36.25,8.12 67.9,21.84 95.25,40.94 35.58,24.86 62.52,56.66 80.84,95.25 18.45,38.72 27.61,82.94 27.61,132.52 0,49.58 -9.16,93.67 -27.61,132.39 -18.32,38.73 -45.26,70.51 -80.84,95.38 -27.09,18.84 -57.96,32.3 -92.76,40.42 -34.65,7.97 -88.56,12.03 -161.56,12.03l-25.77 0 -116.96 0zm151.51 -125.58l25.62 0c60.06,0 104.02,-12.29 131.61,-37.03 27.61,-24.59 41.35,-63.71 41.35,-117.48 0,-53.64 -13.74,-92.88 -41.35,-118 -27.59,-24.98 -71.55,-37.55 -131.61,-37.55l-25.62 0 0 310.06z"/>
   <path id="5" class="fil0" d="M3943 2955c22.77,25.77 45.13,45 67.23,57.83 22.12,12.68 44.09,19.1 66.06,19.1 20.41,0 37.29,-5.51 50.38,-16.48 13.2,-11 19.75,-24.86 19.75,-41.74 0,-18.58 -5.62,-32.97 -17,-43.04 -11.38,-10.09 -37.03,-20.54 -77.06,-31.28 -54.94,-14.78 -93.93,-34.14 -116.68,-57.81 -22.77,-23.81 -34.15,-56.39 -34.15,-97.73 0,-53.75 17.93,-97.46 53.9,-131.33 35.84,-33.89 82.55,-50.77 139.71,-50.77 31.02,0 60.32,4.19 88.06,12.44 27.74,8.36 54.03,20.92 78.88,37.81l-48 109.88c-17.39,-14.78 -35.19,-25.9 -53.51,-33.49 -18.19,-7.45 -36.23,-11.25 -54.16,-11.25 -18.32,0 -33.23,4.45 -44.74,13.22 -11.51,8.77 -17.26,20.14 -17.26,33.88 0,14 4.97,25.25 15.04,33.75 10.09,8.38 29.57,16.48 58.35,24.09l6.93 1.97c62.39,16.87 103.48,35.32 123.1,55.59 13.35,13.74 23.42,30.35 30.35,49.58 6.93,19.36 10.33,40.68 10.33,64.23 0,59.54 -19.49,107.41 -58.59,143.51 -39.12,36.25 -91.32,54.29 -156.47,54.29 -39.1,0 -74.69,-6.68 -106.88,-19.88 -32.06,-13.35 -62.93,-34.15 -92.49,-62.54l68.94 -113.81z"/>
   <polygon id="6" class="fil0" points="4374.04,3136.32 4374.04,2575.09 4527.11,2575.09 4527.11,3005.23 4717.07,3005.23 4717.07,3136.32 "/>
  </g>
 </g>
</svg>
