<?xml version="1.0" encoding="UTF-8"?>
<!DOCTYPE svg PUBLIC "-//W3C//DTD SVG 1.1//EN" "http://www.w3.org/Graphics/SVG/1.1/DTD/svg11.dtd">
<!-- Creator: CorelDRAW Home & Student 2018 -->
<svg xmlns="http://www.w3.org/2000/svg" xml:space="preserve" width="31.625mm" height="17.8376mm" version="1.1" style="shape-rendering:geometricPrecision; text-rendering:geometricPrecision; image-rendering:optimizeQuality; fill-rule:evenodd; clip-rule:evenodd"
viewBox="0 0 342.49 193.18"
 xmlns:xlink="http://www.w3.org/1999/xlink">
 <defs>
  <style type="text/css">
   <![CDATA[
    .fil1 {fill:white}
    .fil0 {fill:white;fill-rule:nonzero}
   ]]>
  </style>
 </defs>
 <g id="Layer_x0020_1">
  <metadata id="CorelCorpID_0Corel-Layer"/>
  <g id="_716078408">
   <path class="fil0" d="M68.66 110.22c-1.16,0 -1.97,-0.29 -2.43,-0.88 -0.47,-0.59 -0.7,-1.73 -0.7,-3.41l0 -6.9c-3.3,4.21 -7.43,7.48 -12.38,9.81 -4.95,2.33 -10.32,3.49 -16.1,3.49 -10.4,0 -19.11,-3.77 -26.12,-11.32 -7.02,-7.55 -10.52,-16.94 -10.52,-28.17 0,-11.62 3.74,-21.29 11.23,-29.01 7.48,-7.72 16.81,-11.58 27.98,-11.58 5.67,0 10.76,1.03 15.27,3.07 4.51,2.05 8.39,5.07 11.64,9.05l0 -32.25 -4.38 0c-4.79,0 -7.88,-0.43 -9.29,-1.31 -1.4,-0.87 -2.1,-2.45 -2.1,-4.76 0,-2.02 0.56,-3.54 1.69,-4.55 1.13,-1.01 2.76,-1.52 4.91,-1.52l16.92 0c1.65,0 2.85,0.28 3.59,0.84 0.74,0.56 1.11,1.43 1.11,2.61l0 94.9 3.71 0c2.7,0 4.65,0.46 5.86,1.39 1.21,0.93 1.82,2.4 1.82,4.42 0,1.91 -0.52,3.4 -1.57,4.46 -1.05,1.07 -2.45,1.6 -4.21,1.6l-15.93 0zm-54.06 -37.81c0,7.75 2.45,14.09 7.35,19.03 4.9,4.94 11.11,7.41 18.65,7.41 7.59,0 13.84,-2.57 18.74,-7.7 4.9,-5.14 7.35,-11.66 7.35,-19.58 0,-7.8 -2.44,-14.23 -7.3,-19.28 -4.87,-5.05 -11.13,-7.58 -18.78,-7.58 -7.76,0 -14.03,2.55 -18.82,7.66 -4.79,5.11 -7.18,11.79 -7.18,20.04zm171.39 -34.86c1.99,-8 5.33,-15 10.02,-20.99 8.15,-10.42 18.65,-15.63 31.5,-15.63 12.79,0 23.29,5.25 31.5,15.76 8.2,10.51 12.31,23.91 12.31,40.2 0,16.36 -4.1,29.77 -12.31,40.25 -8.2,10.48 -18.71,15.72 -31.5,15.72 -12.69,0 -23.15,-5.25 -31.38,-15.76 -4.72,-6.03 -8.09,-13.02 -10.11,-20.95 -2,7.97 -5.37,14.97 -10.09,21 -8.21,10.48 -18.71,15.72 -31.5,15.72 -12.69,0 -23.15,-5.25 -31.38,-15.76 -8.23,-10.51 -12.35,-23.91 -12.35,-40.21 0,-16.48 4.08,-29.92 12.23,-40.34 8.15,-10.42 18.65,-15.63 31.5,-15.63 12.79,0 23.29,5.25 31.5,15.76 4.69,6.01 8.04,12.96 10.05,20.86zm-41.55 62.6c9.07,0 16.21,-3.84 21.42,-11.51 5.21,-7.67 7.81,-18.25 7.81,-31.74 0,-13.49 -2.61,-24.07 -7.81,-31.74 -5.21,-7.67 -12.35,-11.51 -21.42,-11.51 -9.12,0 -16.26,3.81 -21.42,11.42 -5.15,7.61 -7.73,18.22 -7.73,31.83 0,13.49 2.6,24.07 7.81,31.74 5.21,7.67 12.32,11.51 21.34,11.51zm83.07 0c9.07,0 16.21,-3.84 21.42,-11.51 5.21,-7.67 7.81,-18.25 7.81,-31.74 0,-13.49 -2.6,-24.07 -7.81,-31.74 -5.21,-7.67 -12.35,-11.51 -21.42,-11.51 -9.12,0 -16.26,3.81 -21.42,11.42 -5.16,7.61 -7.73,18.22 -7.73,31.83 0,13.49 2.61,24.07 7.81,31.74 5.21,7.67 12.32,11.51 21.34,11.51zm67.82 -29.68l42.06 27.9c1.68,1.16 2.89,2.3 3.62,3.43 0.73,1.13 1.09,2.41 1.09,3.84 0,1.65 -0.33,2.97 -1,3.96 -0.67,0.99 -1.6,1.49 -2.78,1.49 -0.54,0 -1.13,-0.14 -1.78,-0.41 -0.65,-0.28 -1.57,-0.83 -2.75,-1.65l-45.62 -30.62c-0.15,-0.06 -0.34,-0.16 -0.57,-0.33 -3.52,-2.31 -5.28,-4.84 -5.28,-7.59 0,-2.75 1.72,-5.23 5.16,-7.43 0.31,-0.22 0.53,-0.38 0.69,-0.49l45.62 -30.13c1.03,-0.72 1.91,-1.22 2.64,-1.53 0.73,-0.3 1.36,-0.45 1.89,-0.45 1.19,0 2.11,0.47 2.78,1.4 0.67,0.94 1,2.2 1,3.8 0,1.49 -0.36,2.79 -1.09,3.92 -0.73,1.13 -1.93,2.24 -3.62,3.34l-42.06 27.57z"/>
   <rect class="fil1" x="-0" y="127.02" width="342.49" height="10.83" rx="6.45" ry="5.41"/>
   <polygon class="fil0" points="64.98,183.18 64.98,158.15 57.65,158.15 57.65,150.4 81.26,150.4 81.26,158.15 73.92,158.15 73.92,183.18 "/>
   <path id="1" class="fil0" d="M80.1 193.18l6.36 -13.43 -9.12 -19.16 8.85 0 3.16 8.17c0.27,0.69 0.49,1.32 0.67,1.91 0.18,0.6 0.31,1.14 0.4,1.65 0.09,-0.54 0.22,-1.09 0.39,-1.67 0.18,-0.57 0.4,-1.2 0.66,-1.89l3.2 -8.17 8.53 0 -14.21 32.6 -8.89 0z"/>
   <path id="2" class="fil0" d="M112.85 171.95c0,1.76 0.46,3.15 1.38,4.17 0.92,1.02 2.19,1.52 3.8,1.52 1.61,0 2.89,-0.5 3.82,-1.52 0.93,-1.02 1.4,-2.41 1.4,-4.17 0,-1.76 -0.47,-3.15 -1.39,-4.16 -0.92,-1.02 -2.2,-1.52 -3.83,-1.52 -1.61,0 -2.88,0.5 -3.8,1.52 -0.92,1.02 -1.38,2.41 -1.38,4.16zm-7.08 21.23l0 -32.6 7.34 0 0 3.8c1.02,-1.53 2.16,-2.67 3.42,-3.41 1.27,-0.75 2.67,-1.12 4.23,-1.12 3.18,0 5.71,1.08 7.59,3.25 1.88,2.18 2.82,5.12 2.82,8.83 0,3.61 -0.93,6.54 -2.8,8.77 -1.87,2.23 -4.32,3.35 -7.33,3.35 -1.91,0 -3.47,-0.35 -4.67,-1.05 -1.2,-0.7 -2.27,-1.85 -3.21,-3.46 0.08,0.44 0.13,0.99 0.17,1.63 0.04,0.64 0.05,1.44 0.05,2.38l0 9.64 -7.61 0z"/>
   <path id="3" class="fil0" d="M151.59 168.97c-0.15,-1.28 -0.64,-2.32 -1.47,-3.1 -0.83,-0.78 -1.85,-1.17 -3.06,-1.17 -1.3,0 -2.34,0.35 -3.11,1.06 -0.76,0.71 -1.28,1.78 -1.54,3.2l9.18 0zm7.84 4.49l-17.19 0c0.02,1.74 0.47,3.09 1.34,4.04 0.89,0.95 2.13,1.42 3.74,1.42 1.21,0 2.23,-0.23 3.06,-0.68 0.83,-0.46 1.46,-1.13 1.9,-2.03l6 2.42c-0.72,1.73 -1.99,3.07 -3.8,4.01 -1.83,0.94 -4.06,1.41 -6.7,1.41 -3.94,0 -7.11,-1.09 -9.48,-3.28 -2.38,-2.19 -3.58,-5.07 -3.58,-8.66 0,-3.52 1.19,-6.45 3.57,-8.78 2.38,-2.33 5.39,-3.49 9.03,-3.49 3.74,0 6.7,1.18 8.86,3.54 2.16,2.36 3.25,5.59 3.25,9.7l0 0.38z"/>
   <path id="4" class="fil0" d="M161.89 181.3l1.66 -6.1c1.17,1.02 2.45,1.8 3.84,2.35 1.4,0.54 2.8,0.82 4.22,0.82 1,0 1.76,-0.16 2.28,-0.48 0.53,-0.32 0.79,-0.79 0.79,-1.4 0,-1 -1.05,-1.75 -3.16,-2.25 -0.69,-0.16 -1.25,-0.31 -1.66,-0.42 -2.39,-0.66 -4.12,-1.52 -5.2,-2.59 -1.08,-1.06 -1.62,-2.45 -1.62,-4.15 0,-2.2 0.83,-3.95 2.48,-5.26 1.65,-1.31 3.88,-1.97 6.7,-1.97 1.45,0 2.93,0.17 4.42,0.5 1.5,0.34 3.03,0.86 4.6,1.56l-1.66 5.5c-1.05,-0.72 -2.13,-1.27 -3.22,-1.64 -1.09,-0.37 -2.18,-0.56 -3.27,-0.56 -0.91,0 -1.6,0.15 -2.06,0.43 -0.47,0.28 -0.7,0.7 -0.7,1.23 0,0.8 1.05,1.48 3.14,2.04 0.48,0.13 0.84,0.23 1.08,0.29 2.76,0.79 4.68,1.72 5.76,2.78 1.08,1.07 1.62,2.51 1.62,4.33 0,2.31 -0.89,4.18 -2.67,5.6 -1.77,1.43 -4.13,2.14 -7.04,2.14 -1.99,0 -3.83,-0.23 -5.53,-0.68 -1.7,-0.46 -3.3,-1.15 -4.79,-2.07z"/>
   <path id="5" class="fil0" d="M202.41 168.01c-0.78,-0.69 -1.52,-1.18 -2.24,-1.5 -0.72,-0.31 -1.47,-0.47 -2.26,-0.47 -1.58,0 -2.84,0.52 -3.78,1.57 -0.93,1.05 -1.4,2.46 -1.4,4.26 0,1.73 0.49,3.11 1.46,4.14 0.97,1.03 2.27,1.54 3.91,1.54 0.81,0 1.57,-0.16 2.28,-0.48 0.71,-0.32 1.38,-0.82 2.03,-1.49l0 6.91c-0.96,0.53 -1.91,0.93 -2.87,1.18 -0.96,0.25 -1.94,0.38 -2.96,0.38 -3.48,0 -6.3,-1.12 -8.45,-3.35 -2.16,-2.23 -3.24,-5.17 -3.24,-8.81 0,-3.54 1.1,-6.43 3.3,-8.68 2.21,-2.25 5.03,-3.37 8.48,-3.37 1.15,0 2.18,0.11 3.11,0.34 0.92,0.22 1.8,0.58 2.62,1.08l0 6.75z"/>
   <path id="6" class="fil0" d="M207.36 183.18l0 -22.6 7.53 0 0 5.33c0.78,-1.95 1.83,-3.4 3.18,-4.37 1.35,-0.97 2.97,-1.46 4.88,-1.46 0.31,0 0.63,0.01 0.96,0.03 0.32,0.02 0.64,0.06 0.97,0.11l-0.78 7.24c-0.47,-0.16 -0.95,-0.28 -1.41,-0.35 -0.47,-0.07 -0.91,-0.11 -1.35,-0.11 -1.93,0 -3.42,0.6 -4.48,1.78 -1.05,1.18 -1.57,2.87 -1.57,5.04l0 9.36 -7.93 0z"/>
   <path id="7" class="fil0" d="M227.62 153.52c0,-1.21 0.43,-2.23 1.29,-3.08 0.86,-0.85 1.89,-1.28 3.1,-1.28 1.25,0 2.3,0.42 3.14,1.25 0.85,0.83 1.27,1.86 1.27,3.1 0,1.24 -0.43,2.28 -1.29,3.15 -0.86,0.86 -1.9,1.3 -3.12,1.3 -1.2,0 -2.23,-0.44 -3.1,-1.32 -0.86,-0.88 -1.3,-1.92 -1.3,-3.12zm0.41 29.66l0 -22.6 7.98 0 0 22.6 -7.98 0z"/>
   <path id="8" class="fil0" d="M249.23 171.95c0,1.76 0.46,3.15 1.38,4.17 0.92,1.02 2.19,1.52 3.8,1.52 1.61,0 2.89,-0.5 3.82,-1.52 0.93,-1.02 1.4,-2.41 1.4,-4.17 0,-1.76 -0.47,-3.15 -1.39,-4.16 -0.92,-1.02 -2.2,-1.52 -3.83,-1.52 -1.61,0 -2.88,0.5 -3.8,1.52 -0.92,1.02 -1.38,2.41 -1.38,4.16zm-7.08 21.23l0 -32.6 7.34 0 0 3.8c1.02,-1.53 2.16,-2.67 3.42,-3.41 1.27,-0.75 2.67,-1.12 4.23,-1.12 3.18,0 5.71,1.08 7.59,3.25 1.88,2.18 2.82,5.12 2.82,8.83 0,3.61 -0.93,6.54 -2.8,8.77 -1.87,2.23 -4.32,3.35 -7.33,3.35 -1.91,0 -3.47,-0.35 -4.67,-1.05 -1.2,-0.7 -2.27,-1.85 -3.21,-3.46 0.08,0.44 0.13,0.99 0.17,1.63 0.04,0.64 0.05,1.44 0.05,2.38l0 9.64 -7.61 0z"/>
   <polygon id="9" class="fil0" points="273.61,183.18 273.61,166.22 270.22,166.22 270.22,160.58 273.61,160.58 273.61,153.84 281.45,153.84 281.45,160.58 284.84,160.58 284.84,166.22 281.45,166.22 281.45,183.18 "/>
  </g>
 </g>
</svg>
