<?xml version="1.0" encoding="UTF-8"?>
<!DOCTYPE svg PUBLIC "-//W3C//DTD SVG 1.1//EN" "http://www.w3.org/Graphics/SVG/1.1/DTD/svg11.dtd">
<!-- Creator: CorelDRAW Home & Student 2018 -->
<svg xmlns="http://www.w3.org/2000/svg" xml:space="preserve" width="31.625mm" height="16.9951mm" version="1.1" style="shape-rendering:geometricPrecision; text-rendering:geometricPrecision; image-rendering:optimizeQuality; fill-rule:evenodd; clip-rule:evenodd"
viewBox="0 0 647.18 347.79"
 xmlns:xlink="http://www.w3.org/1999/xlink">
 <defs>
  <style type="text/css">
   <![CDATA[
    .fil1 {fill:#000066}
    .fil0 {fill:#000066;fill-rule:nonzero}
   ]]>
  </style>
 </defs>
 <g id="Layer_x0020_1">
  <metadata id="CorelCorpID_0Corel-Layer"/>
  <g id="_706274296">
   <path class="fil0" d="M129.75 208.28c-2.18,0 -3.72,-0.56 -4.6,-1.67 -0.88,-1.11 -1.33,-3.26 -1.33,-6.44l0 -13.05c-6.24,7.95 -14.04,14.13 -23.39,18.54 -9.36,4.4 -19.5,6.6 -30.41,6.6 -19.65,0 -36.11,-7.13 -49.36,-21.4 -13.26,-14.27 -19.89,-32.01 -19.89,-53.23 0,-21.96 7.07,-40.23 21.21,-54.82 14.14,-14.58 31.76,-21.88 52.87,-21.88 10.71,0 20.33,1.94 28.85,5.81 8.53,3.87 15.86,9.58 21.99,17.11l0 -60.94 -8.27 0c-9.05,0 -14.89,-0.82 -17.55,-2.47 -2.65,-1.64 -3.98,-4.64 -3.98,-8.99 0,-3.82 1.06,-6.68 3.2,-8.59 2.13,-1.91 5.22,-2.87 9.28,-2.87l31.97 0c3.12,0 5.38,0.53 6.78,1.59 1.4,1.06 2.11,2.7 2.11,4.93l0 179.33 7.02 0c5.09,0 8.79,0.87 11.07,2.62 2.29,1.75 3.43,4.53 3.43,8.35 0,3.61 -0.99,6.42 -2.96,8.43 -1.98,2.02 -4.63,3.02 -7.95,3.02l-30.1 0zm-102.16 -71.44c0,14.64 4.63,26.62 13.88,35.96 9.25,9.33 21,14 35.25,14 14.35,0 26.15,-4.85 35.4,-14.56 9.25,-9.71 13.88,-22.04 13.88,-37 0,-14.74 -4.6,-26.89 -13.8,-36.44 -9.2,-9.55 -21.03,-14.32 -35.48,-14.32 -14.66,0 -26.52,4.83 -35.56,14.48 -9.05,9.65 -13.57,22.28 -13.57,37.87zm323.85 -65.87c3.76,-15.12 10.07,-28.34 18.94,-39.67 15.4,-19.69 35.24,-29.53 59.52,-29.53 24.17,0 44.02,9.93 59.52,29.78 15.5,19.85 23.26,45.18 23.26,75.97 0,30.91 -7.75,56.26 -23.26,76.06 -15.5,19.8 -35.35,29.7 -59.52,29.7 -23.97,0 -43.73,-9.93 -59.29,-29.78 -8.93,-11.4 -15.3,-24.59 -19.1,-39.6 -3.79,15.07 -10.14,28.29 -19.06,39.68 -15.51,19.8 -35.35,29.7 -59.52,29.7 -23.97,0 -43.73,-9.93 -59.29,-29.78 -15.55,-19.85 -23.33,-45.18 -23.33,-75.97 0,-31.13 7.7,-56.54 23.1,-76.23 15.4,-19.69 35.24,-29.53 59.52,-29.53 24.17,0 44.01,9.93 59.52,29.78 8.86,11.35 15.19,24.49 18.99,39.41zm-78.51 118.28c17.14,0 30.63,-7.25 40.47,-21.74 9.84,-14.49 14.77,-34.49 14.77,-59.98 0,-25.49 -4.92,-45.49 -14.77,-59.98 -9.84,-14.49 -23.33,-21.74 -40.47,-21.74 -17.24,0 -30.73,7.19 -40.47,21.57 -9.74,14.38 -14.61,34.43 -14.61,60.15 0,25.49 4.92,45.49 14.77,59.98 9.84,14.49 23.28,21.74 40.32,21.74zm156.97 0c17.13,0 30.63,-7.25 40.47,-21.74 9.84,-14.49 14.76,-34.49 14.76,-59.98 0,-25.49 -4.92,-45.49 -14.76,-59.98 -9.84,-14.49 -23.34,-21.74 -40.47,-21.74 -17.24,0 -30.73,7.19 -40.47,21.57 -9.74,14.38 -14.61,34.43 -14.61,60.15 0,25.49 4.92,45.49 14.77,59.98 9.84,14.49 23.28,21.74 40.32,21.74zm128.15 -56.08l79.48 52.72c3.18,2.18 5.46,4.34 6.83,6.47 1.37,2.13 2.06,4.55 2.06,7.25 0,3.12 -0.63,5.62 -1.89,7.49 -1.27,1.87 -3.02,2.81 -5.26,2.81 -1.02,0 -2.13,-0.26 -3.36,-0.78 -1.23,-0.52 -2.97,-1.56 -5.21,-3.12l-86.2 -57.86c-0.29,-0.1 -0.65,-0.31 -1.08,-0.62 -6.65,-4.37 -9.98,-9.15 -9.98,-14.35 0,-5.2 3.25,-9.88 9.76,-14.04 0.58,-0.42 1.01,-0.73 1.3,-0.94l86.2 -56.93c1.95,-1.35 3.61,-2.31 4.99,-2.89 1.37,-0.57 2.56,-0.86 3.58,-0.86 2.24,0 3.99,0.88 5.26,2.65 1.26,1.77 1.89,4.16 1.89,7.17 0,2.81 -0.69,5.28 -2.06,7.41 -1.38,2.13 -3.65,4.24 -6.83,6.32l-79.48 52.09z"/>
   <rect class="fil1" x="-0" y="240.02" width="647.18" height="20.46" rx="12.19" ry="10.23"/>
   <path class="fil0" d="M151.51 346.15l0 -61.94 17.67 0c6.9,0 11.72,0.32 14.44,0.95 2.71,0.63 5.07,1.7 7.05,3.19 2.22,1.69 3.94,3.86 5.14,6.47 1.2,2.63 1.79,5.52 1.79,8.68 0,4.79 -1.18,8.69 -3.54,11.7 -2.37,3 -5.8,5 -10.32,5.98l16.89 24.98 -19.06 0 -14.21 -24.26 0 24.26 -15.85 0zm15.85 -32.66l3.12 0c3.64,0 6.29,-0.62 7.97,-1.86 1.67,-1.24 2.51,-3.19 2.51,-5.83 0,-3.1 -0.78,-5.31 -2.34,-6.63 -1.58,-1.31 -4.19,-1.96 -7.88,-1.96l-3.38 0 0 16.29z"/>
   <path id="1" class="fil0" d="M233.96 319.29c-0.29,-2.43 -1.21,-4.38 -2.77,-5.85 -1.57,-1.47 -3.5,-2.21 -5.79,-2.21 -2.46,0 -4.42,0.66 -5.88,2.01 -1.44,1.34 -2.41,3.36 -2.9,6.05l17.34 0zm14.81 8.49l-32.49 0c0.03,3.29 0.88,5.83 2.54,7.63 1.68,1.79 4.03,2.68 7.08,2.68 2.29,0 4.22,-0.43 5.79,-1.29 1.56,-0.87 2.76,-2.14 3.58,-3.83l11.33 4.56c-1.36,3.28 -3.75,5.8 -7.19,7.58 -3.45,1.78 -7.67,2.67 -12.66,2.67 -7.45,0 -13.43,-2.06 -17.92,-6.19 -4.5,-4.14 -6.76,-9.59 -6.76,-16.36 0,-6.66 2.25,-12.19 6.74,-16.59 4.5,-4.4 10.19,-6.6 17.07,-6.6 7.07,0 12.66,2.22 16.75,6.68 4.09,4.46 6.14,10.57 6.14,18.32l0 0.72z"/>
   <path id="2" class="fil0" d="M289.98 324.75c0,-3.34 -0.88,-5.96 -2.66,-7.91 -1.78,-1.95 -4.2,-2.92 -7.28,-2.92 -3.08,0 -5.49,0.97 -7.25,2.9 -1.76,1.92 -2.64,4.58 -2.64,7.93 0,3.32 0.88,5.95 2.66,7.87 1.78,1.92 4.19,2.87 7.23,2.87 3.08,0 5.5,-0.95 7.28,-2.87 1.78,-1.92 2.66,-4.55 2.66,-7.87zm13.27 -21.31l0 42.71 -13.86 0 0 -6.93c-1.98,2.96 -4.19,5.13 -6.65,6.51 -2.47,1.37 -5.37,2.06 -8.69,2.06 -5.7,0 -10.25,-2.08 -13.67,-6.24 -3.41,-4.16 -5.11,-9.75 -5.11,-16.73 0,-6.97 1.79,-12.5 5.36,-16.62 3.56,-4.1 8.36,-6.15 14.39,-6.15 3.22,0 5.99,0.69 8.32,2.06 2.32,1.37 4.32,3.48 5.98,6.34l0 -7.02 13.95 0z"/>
   <path id="3" class="fil0" d="M345.28 317.47c-1.47,-1.3 -2.87,-2.24 -4.23,-2.83 -1.36,-0.59 -2.77,-0.9 -4.27,-0.9 -2.99,0 -5.37,0.98 -7.13,2.96 -1.76,1.98 -2.64,4.65 -2.64,8.04 0,3.26 0.92,5.88 2.76,7.83 1.83,1.95 4.29,2.92 7.39,2.92 1.53,0 2.96,-0.3 4.3,-0.91 1.34,-0.61 2.62,-1.55 3.83,-2.82l0 13.07c-1.8,1.01 -3.61,1.76 -5.41,2.24 -1.8,0.47 -3.67,0.72 -5.59,0.72 -6.57,0 -11.9,-2.11 -15.97,-6.32 -4.09,-4.22 -6.12,-9.78 -6.12,-16.65 0,-6.69 2.08,-12.16 6.24,-16.4 4.17,-4.24 9.5,-6.37 16.03,-6.37 2.17,0 4.13,0.21 5.88,0.63 1.75,0.42 3.41,1.1 4.95,2.04l0 12.75z"/>
   <polygon id="4" class="fil0" points="356.89,346.15 356.89,314.09 350.48,314.09 350.48,303.44 356.89,303.44 356.89,290.7 371.7,290.7 371.7,303.44 378.11,303.44 378.11,314.09 371.7,314.09 371.7,346.15 "/>
   <path id="5" class="fil0" d="M425.5 284.21l16.81 0 0 40.21c0,4.36 -0.29,7.73 -0.85,10.06 -0.56,2.34 -1.49,4.4 -2.79,6.21 -1.72,2.34 -3.83,4.12 -6.34,5.31 -2.51,1.2 -5.33,1.79 -8.45,1.79 -3.9,0 -7.36,-0.84 -10.4,-2.5 -3.05,-1.66 -5.66,-4.12 -7.83,-7.38l10.31 -9.36c0.26,1.83 0.85,3.25 1.77,4.23 0.94,0.99 2.11,1.49 3.52,1.49 1.6,0 2.71,-0.89 3.32,-2.67 0.61,-1.78 0.91,-6.22 0.91,-13.33l0 -34.08z"/>
   <path id="6" class="fil0" d="M457.54 326.14c2.51,2.84 4.98,4.97 7.42,6.38 2.44,1.4 4.87,2.11 7.29,2.11 2.25,0 4.12,-0.61 5.56,-1.82 1.46,-1.21 2.18,-2.74 2.18,-4.61 0,-2.05 -0.62,-3.64 -1.88,-4.75 -1.26,-1.11 -4.09,-2.27 -8.5,-3.45 -6.06,-1.63 -10.37,-3.77 -12.88,-6.38 -2.51,-2.63 -3.77,-6.22 -3.77,-10.79 0,-5.93 1.98,-10.76 5.95,-14.49 3.96,-3.74 9.11,-5.6 15.42,-5.6 3.42,0 6.66,0.46 9.72,1.37 3.06,0.92 5.96,2.31 8.71,4.17l-5.3 12.13c-1.92,-1.63 -3.88,-2.86 -5.91,-3.7 -2.01,-0.82 -4,-1.24 -5.98,-1.24 -2.02,0 -3.67,0.49 -4.94,1.46 -1.27,0.97 -1.91,2.22 -1.91,3.74 0,1.55 0.55,2.79 1.66,3.72 1.11,0.92 3.26,1.82 6.44,2.66l0.77 0.22c6.89,1.86 11.42,3.9 13.59,6.14 1.47,1.52 2.58,3.35 3.35,5.47 0.77,2.14 1.14,4.49 1.14,7.09 0,6.57 -2.15,11.85 -6.47,15.84 -4.32,4 -10.08,5.99 -17.27,5.99 -4.32,0 -8.24,-0.74 -11.8,-2.19 -3.54,-1.47 -6.95,-3.77 -10.21,-6.9l7.61 -12.56z"/>
  </g>
 </g>
</svg>
