<?xml version="1.0" encoding="UTF-8"?>
<!DOCTYPE svg PUBLIC "-//W3C//DTD SVG 1.1//EN" "http://www.w3.org/Graphics/SVG/1.1/DTD/svg11.dtd">
<!-- Creator: CorelDRAW Home & Student 2018 -->
<svg xmlns="http://www.w3.org/2000/svg" xml:space="preserve" width="31.625mm" height="17.8377mm" version="1.1" style="shape-rendering:geometricPrecision; text-rendering:geometricPrecision; image-rendering:optimizeQuality; fill-rule:evenodd; clip-rule:evenodd"
viewBox="0 0 830.51 468.44"
 xmlns:xlink="http://www.w3.org/1999/xlink">
 <defs>
  <style type="text/css">
   <![CDATA[
    .fil1 {fill:white}
    .fil0 {fill:white;fill-rule:nonzero}
   ]]>
  </style>
 </defs>
 <g id="Layer_x0020_1">
  <metadata id="CorelCorpID_0Corel-Layer"/>
  <g id="_713546032">
   <path class="fil0" d="M166.5 267.28c-2.8,0 -4.77,-0.71 -5.9,-2.14 -1.13,-1.43 -1.7,-4.19 -1.7,-8.27l0 -16.74c-8,10.21 -18.01,18.14 -30.02,23.79 -12.01,5.65 -25.02,8.47 -39.03,8.47 -25.22,0 -46.33,-9.15 -63.34,-27.46 -17.01,-18.31 -25.52,-41.08 -25.52,-68.3 0,-28.18 9.08,-51.63 27.22,-70.34 18.15,-18.72 40.76,-28.08 67.85,-28.08 13.75,0 26.09,2.48 37.03,7.45 10.94,4.97 20.35,12.28 28.22,21.95l0 -78.2 -10.61 0c-11.61,0 -19.11,-1.06 -22.52,-3.17 -3.4,-2.11 -5.1,-5.95 -5.1,-11.53 0,-4.9 1.37,-8.57 4.1,-11.02 2.74,-2.45 6.71,-3.68 11.91,-3.68l41.03 0c4,0 6.9,0.68 8.71,2.04 1.8,1.36 2.7,3.47 2.7,6.33l0 230.12 9 0c6.54,0 11.28,1.12 14.21,3.37 2.94,2.25 4.4,5.82 4.4,10.72 0,4.63 -1.27,8.24 -3.8,10.82 -2.53,2.59 -5.94,3.88 -10.21,3.88l-38.63 0zm-131.09 -91.68c0,18.78 5.94,34.17 17.81,46.15 11.88,11.98 26.95,17.97 45.23,17.97 18.41,0 33.56,-6.23 45.43,-18.68 11.88,-12.46 17.81,-28.28 17.81,-47.47 0,-18.92 -5.9,-34.51 -17.71,-46.76 -11.81,-12.25 -26.99,-18.38 -45.53,-18.38 -18.81,0 -34.02,6.19 -45.63,18.58 -11.61,12.39 -17.41,28.59 -17.41,48.6zm415.59 -84.53c4.83,-19.4 12.93,-36.37 24.3,-50.91 19.76,-25.26 45.22,-37.89 76.38,-37.89 31.02,0 56.49,12.74 76.38,38.22 19.9,25.48 29.85,57.98 29.85,97.49 0,39.66 -9.95,72.19 -29.85,97.6 -19.89,25.41 -45.36,38.11 -76.38,38.11 -30.76,0 -56.13,-12.74 -76.09,-38.22 -11.46,-14.62 -19.63,-31.56 -24.51,-50.81 -4.86,19.33 -13.01,36.3 -24.46,50.92 -19.9,25.41 -45.36,38.11 -76.38,38.11 -30.76,0 -56.13,-12.74 -76.09,-38.22 -19.96,-25.48 -29.94,-57.97 -29.94,-97.49 0,-39.95 9.88,-72.56 29.65,-97.82 19.76,-25.26 45.22,-37.89 76.38,-37.89 31.02,0 56.48,12.74 76.38,38.22 11.37,14.57 19.5,31.43 24.37,50.58zm-100.75 151.79c21.99,0 39.3,-9.3 51.93,-27.9 12.63,-18.6 18.95,-44.26 18.95,-76.97 0,-32.72 -6.32,-58.37 -18.95,-76.97 -12.63,-18.6 -29.94,-27.9 -51.93,-27.9 -22.12,0 -39.43,9.23 -51.94,27.68 -12.5,18.46 -18.75,44.19 -18.75,77.19 0,32.71 6.32,58.37 18.95,76.97 12.63,18.6 29.88,27.9 51.74,27.9zm201.44 0c21.99,0 39.3,-9.3 51.93,-27.9 12.63,-18.6 18.95,-44.26 18.95,-76.97 0,-32.72 -6.31,-58.37 -18.95,-76.97 -12.63,-18.6 -29.95,-27.9 -51.93,-27.9 -22.12,0 -39.43,9.23 -51.94,27.68 -12.5,18.46 -18.75,44.19 -18.75,77.19 0,32.71 6.32,58.37 18.94,76.97 12.63,18.6 29.88,27.9 51.74,27.9zm164.45 -71.97l101.99 67.65c4.08,2.8 7,5.57 8.77,8.31 1.76,2.74 2.64,5.84 2.64,9.31 0,4 -0.81,7.21 -2.43,9.61 -1.63,2.4 -3.87,3.6 -6.75,3.6 -1.3,0 -2.74,-0.33 -4.31,-1 -1.58,-0.67 -3.8,-2 -6.68,-4l-110.62 -74.25c-0.37,-0.13 -0.83,-0.4 -1.39,-0.8 -8.54,-5.6 -12.8,-11.74 -12.8,-18.41 0,-6.67 4.17,-12.68 12.52,-18.01 0.74,-0.54 1.3,-0.93 1.67,-1.2l110.62 -73.05c2.5,-1.73 4.64,-2.97 6.4,-3.7 1.76,-0.73 3.29,-1.1 4.59,-1.1 2.88,0 5.12,1.13 6.75,3.4 1.62,2.27 2.43,5.34 2.43,9.21 0,3.6 -0.88,6.77 -2.64,9.51 -1.76,2.73 -4.69,5.44 -8.77,8.11l-101.99 66.85z"/>
   <rect class="fil1" x="0" y="308.01" width="830.51" height="26.26" rx="15.64" ry="13.13"/>
   <path class="fil0" d="M265.22 444.2l-20.25 0 -4.65 -34.37c-0.33,-2.43 -0.63,-5.11 -0.91,-8.1 -0.26,-2.96 -0.52,-6.21 -0.72,-9.71 -0.52,3.37 -1.5,7.56 -2.98,12.6 -0.33,1.04 -0.58,1.82 -0.72,2.33l-10.79 37.24 -14.45 0 -10.78 -37.24c-0.15,-0.52 -0.37,-1.29 -0.67,-2.33 -1.52,-5.04 -2.5,-9.21 -2.98,-12.54 -0.2,3 -0.46,5.98 -0.76,8.93 -0.28,2.94 -0.63,5.89 -1.02,8.82l-4.67 34.37 -20.14 0 12.27 -79.49 21.44 0 11.99 40.99c0.07,0.3 0.22,0.76 0.45,1.43 1.11,3.65 1.81,6.78 2.11,9.39 0.15,-1.43 0.41,-2.98 0.81,-4.71 0.39,-1.72 0.95,-3.8 1.63,-6.23l12.1 -40.87 21.49 0 12.21 79.49z"/>
   <path id="1" class="fil0" d="M317.32 416.74c0,-4.28 -1.13,-7.65 -3.41,-10.16 -2.28,-2.5 -5.39,-3.74 -9.34,-3.74 -3.95,0 -7.04,1.24 -9.3,3.72 -2.26,2.47 -3.39,5.87 -3.39,10.17 0,4.26 1.13,7.63 3.41,10.1 2.28,2.46 5.38,3.69 9.28,3.69 3.95,0 7.06,-1.22 9.34,-3.69 2.28,-2.46 3.41,-5.84 3.41,-10.1zm17.03 -27.35l0 54.81 -17.79 0 0 -8.89c-2.54,3.8 -5.37,6.58 -8.54,8.36 -3.17,1.76 -6.89,2.65 -11.16,2.65 -7.32,0 -13.15,-2.67 -17.55,-8 -4.37,-5.34 -6.56,-12.51 -6.56,-21.47 0,-8.95 2.3,-16.05 6.88,-21.33 4.57,-5.26 10.73,-7.89 18.47,-7.89 4.13,0 7.69,0.89 10.67,2.65 2.98,1.76 5.54,4.47 7.67,8.14l0 -9 17.9 0z"/>
   <path id="2" class="fil0" d="M366.2 416.96c0,4.26 1.11,7.63 3.34,10.1 2.22,2.46 5.3,3.69 9.21,3.69 3.91,0 7,-1.22 9.26,-3.69 2.26,-2.47 3.39,-5.84 3.39,-10.1 0,-4.26 -1.13,-7.63 -3.37,-10.1 -2.24,-2.46 -5.34,-3.69 -9.28,-3.69 -3.91,0 -6.99,1.22 -9.21,3.69 -2.22,2.47 -3.34,5.84 -3.34,10.1zm-17.16 51.47l0 -79.04 17.81 0 0 9.23c2.46,-3.71 5.23,-6.47 8.3,-8.28 3.08,-1.82 6.48,-2.72 10.25,-2.72 7.71,0 13.84,2.63 18.4,7.89 4.56,5.28 6.84,12.41 6.84,21.42 0,8.77 -2.26,15.86 -6.8,21.27 -4.54,5.41 -10.47,8.11 -17.77,8.11 -4.63,0 -8.41,-0.85 -11.32,-2.56 -2.91,-1.69 -5.5,-4.49 -7.78,-8.39 0.19,1.07 0.32,2.41 0.41,3.94 0.09,1.56 0.13,3.48 0.13,5.76l0 23.36 -18.45 0z"/>
   <path id="3" class="fil0" d="M439.59 416.96c0,4.26 1.11,7.63 3.34,10.1 2.22,2.46 5.3,3.69 9.21,3.69 3.91,0 7,-1.22 9.26,-3.69 2.26,-2.47 3.39,-5.84 3.39,-10.1 0,-4.26 -1.13,-7.63 -3.37,-10.1 -2.24,-2.46 -5.34,-3.69 -9.28,-3.69 -3.91,0 -6.99,1.22 -9.21,3.69 -2.22,2.47 -3.34,5.84 -3.34,10.1zm-17.16 51.47l0 -79.04 17.81 0 0 9.23c2.46,-3.71 5.23,-6.47 8.3,-8.28 3.08,-1.82 6.48,-2.72 10.25,-2.72 7.71,0 13.84,2.63 18.4,7.89 4.56,5.28 6.84,12.41 6.84,21.42 0,8.77 -2.26,15.86 -6.8,21.27 -4.54,5.41 -10.47,8.11 -17.77,8.11 -4.63,0 -8.41,-0.85 -11.32,-2.56 -2.91,-1.69 -5.5,-4.49 -7.78,-8.39 0.19,1.07 0.32,2.41 0.41,3.94 0.09,1.56 0.13,3.48 0.13,5.76l0 23.36 -18.45 0z"/>
   <path id="4" class="fil0" d="M495.27 372.27c0,-2.93 1.04,-5.41 3.13,-7.47 2.08,-2.06 4.58,-3.09 7.52,-3.09 3.04,0 5.58,1.02 7.62,3.04 2.06,2.02 3.08,4.52 3.08,7.52 0,3 -1.04,5.54 -3.13,7.63 -2.08,2.1 -4.6,3.15 -7.56,3.15 -2.91,0 -5.41,-1.07 -7.51,-3.21 -2.09,-2.13 -3.15,-4.65 -3.15,-7.58zm1 71.93l0 -54.81 19.34 0 0 54.81 -19.34 0z"/>
   <path id="5" class="fil0" d="M530.4 444.2l0 -54.81 17.71 0 0 11.12c2.56,-4.46 5.52,-7.73 8.89,-9.8 3.35,-2.06 7.39,-3.09 12.08,-3.09 3.56,0 6.71,0.57 9.47,1.7 2.76,1.15 5.02,2.78 6.74,4.93 1.46,1.84 2.48,4.1 3.09,6.73 0.61,2.65 0.93,6.59 0.93,11.84l0 31.39 -19.34 0 0 -29.37c0,-4.39 -0.72,-7.56 -2.15,-9.56 -1.43,-1.98 -3.71,-2.98 -6.85,-2.98 -4.02,0 -6.95,1.48 -8.8,4.45 -1.84,2.96 -2.76,7.78 -2.76,14.45l0 23.01 -19.01 0z"/>
   <path id="6" class="fil0" d="M644.76 416.63c0,-4.22 -1.13,-7.54 -3.39,-9.95 -2.26,-2.41 -5.37,-3.61 -9.36,-3.61 -4.02,0 -7.17,1.2 -9.47,3.61 -2.3,2.41 -3.45,5.72 -3.45,9.95 0,4.19 1.15,7.51 3.45,9.93 2.3,2.43 5.45,3.63 9.47,3.63 3.95,0 7.06,-1.21 9.34,-3.63 2.26,-2.43 3.41,-5.74 3.41,-9.93zm17.03 -27.24l0 54.72c0,8.3 -2.52,14.41 -7.58,18.38 -5.04,3.97 -12.86,5.95 -23.42,5.95 -8.56,0 -15.25,-1.59 -20.11,-4.76 -4.85,-3.17 -7.41,-7.67 -7.71,-13.47l20.01 0c0.3,1.7 1.24,3.04 2.85,4 1.61,0.96 3.74,1.44 6.37,1.44 4.17,0 7.04,-1 8.6,-3 1.57,-2.02 2.37,-6.22 2.37,-12.67l0 -5c-2.02,3.45 -4.61,6.02 -7.77,7.71 -3.15,1.69 -6.89,2.52 -11.23,2.52 -7.25,0 -13.04,-2.61 -17.43,-7.86 -4.37,-5.22 -6.56,-12.21 -6.56,-20.94 0,-8.8 2.3,-15.81 6.88,-20.99 4.57,-5.21 10.73,-7.8 18.47,-7.8 4.09,0 7.62,0.85 10.62,2.56 2.98,1.7 5.56,4.37 7.73,8l0 -8.78 17.9 0z"/>
  </g>
 </g>
</svg>
